# xmcd CD database file
#
# Track frame offsets:
#	150
#	8250
#	25580
#	45478
#	61781
#	77919
#	95374
#	111434
#	126136
#	143777
#	163903
#	181939
#	205118
#	224431
#	240929
#	260167
#	280778
#	301564
#	321208
#
# Disc length: 4516 seconds
#
# Revision: 0
# Processed by: cddbd v1.5.1PL2 Copyright (c) Steve Scherf et al.
# Submitted via: CDex 1.51
#
DISCID=f711a213
DTITLE=T-PAIN - RAPPA TERNT SANGA
DYEAR=2005
DGENRE=Hip-Hop
TTITLE0=RAPPA TERNT SANGA (INTRO)
TTITLE1=I'M SPRUNG
TTITLE2=I'M N LUV (WIT A STRIPPER)
TTITLE3=STUDIO LUV
TTITLE4=U GOT ME
TTITLE5=LET'S GET IT ON
TTITLE6=COMO ESTARS
TTITLE7=HAVE IT (INTERLUDE)
TTITLE8=FLY AWAY
TTITLE9=GOING THRU A LOT
TTITLE10=SAY IT
TTITLE11=DANCE FLOOR
TTITLE12=UR NOT THE SAME
TTITLE13=MY PLACE
TTITLE14=BLOW YA MIND
TTITLE15=RIDGE ROAD
TTITLE16=I'M HI
TTITLE17=I'M SPRUNG 2
TTITLE18=REAL GOOD MUZIK
EXTD=YEAR: 2005
EXTT0=
EXTT1=
EXTT2=
EXTT3=
EXTT4=
EXTT5=
EXTT6=
EXTT7=
EXTT8=
EXTT9=
EXTT10=
EXTT11=
EXTT12=
EXTT13=
EXTT14=
EXTT15=
EXTT16=
EXTT17=
EXTT18=
PLAYORDER=
